<?xml version="1.0" ?><!DOCTYPE svg  PUBLIC '-//W3C//DTD SVG 1.1//EN'  'http://www.w3.org/Graphics/SVG/1.1/DTD/svg11.dtd'><svg enable-background="new -798.5 531.5 512 512" height="512px" id="Layer_1" version="1.1" viewBox="-798.5 531.5 512 512" width="512px" xml:space="preserve" xmlns="http://www.w3.org/2000/svg" xmlns:xlink="http://www.w3.org/1999/xlink"><g><g><circle cx="-542.628" cy="781.013" fill="#FFDAB6" r="176.364"/></g><g><circle cx="-406.434" cy="951.431" fill="#FFDAB6" r="23.022"/></g><g><circle cx="-379.397" cy="909.529" fill="#FFDAB6" r="11.511"/></g><g><circle cx="-678.823" cy="951.431" fill="#FFDAB6" r="23.022"/></g><g><circle cx="-705.86" cy="909.529" fill="#FFDAB6" r="11.511"/></g></g><g><g><path d="M-632.5,752.167l31,211c0,0,57,30,119,0l30-210L-632.5,752.167z" fill="#FFFFFF"/></g><g><path d="M-632.5,752.167l31,185.604c0,0,57,26.39,119,0l30-184.725L-632.5,752.167z" fill="#C1AA97"/></g><g><path d="M-519.03,752.721c21.083,20.633,34.53,51.919,34.53,86.945c0,52.67-30.406,96.881-71.46,109.126    c20.743,1.932,46.631,0.398,73.46-11.021l30-184.725L-519.03,752.721z" fill="#B79D8A"/></g><g><path d="M-540.901,981.5c-0.002,0-0.004,0-0.007,0c-36.076-0.001-61.841-13.341-62.92-13.908    c-1.414-0.744-2.387-2.118-2.619-3.698l-31-211c-0.212-1.442,0.216-2.905,1.172-4.006c0.95-1.093,2.327-1.721,3.775-1.721    c0.009,0,0.019,0,0.028,0l180,1c1.444,0.008,2.815,0.641,3.758,1.734c0.944,1.094,1.368,2.543,1.164,3.973l-30,210    c-0.235,1.647-1.274,3.069-2.772,3.794C-499.291,976.846-519.673,981.5-540.901,981.5z M-596.941,959.802    c6.776,3.063,28.345,11.697,56.034,11.698c0.001,0,0.005,0,0.006,0c18.819,0,36.913-3.936,53.832-11.706l28.809-201.659    l-168.447-0.936L-596.941,959.802z" fill="#58595B"/></g><g><path d="M-541.194,952.843c-7.603,0-15.356-0.711-23.219-2.145c-24.52-4.469-41.292-14.252-41.995-14.667    c-2.378-1.403-3.168-4.469-1.765-6.847c1.403-2.377,4.465-3.167,6.843-1.768l0,0c0.159,0.094,16.193,9.402,39.047,13.505    c30.241,5.427,57.568-0.346,81.219-17.163c2.251-1.6,5.373-1.073,6.972,1.178c1.601,2.25,1.073,5.372-1.177,6.973    C-494.75,945.761-517.213,952.843-541.194,952.843z" fill="#58595B"/></g><g><ellipse cx="-542.5" cy="846.501" fill="#A38061" rx="41.333" ry="63.333"/></g><g><path d="M-542.5,914.834c-12.787,0-24.653-7.394-33.414-20.817c-8.331-12.765-12.919-29.64-12.919-47.516    s4.588-34.751,12.919-47.517c8.761-13.424,20.627-20.817,33.414-20.817s24.653,7.394,33.414,20.817    c8.331,12.766,12.919,29.641,12.919,47.517s-4.588,34.751-12.919,47.516C-517.846,907.44-529.713,914.834-542.5,914.834z     M-542.5,788.167c-20.034,0-36.333,26.169-36.333,58.334s16.299,58.333,36.333,58.333s36.333-26.168,36.333-58.333    S-522.466,788.167-542.5,788.167z" fill="#58595B"/></g><g><path d="M-552.163,910.167c-1.452,0-2.893-0.63-3.881-1.844c-1.743-2.142-1.42-5.291,0.722-7.034    c21.725-17.683,16.755-29.891,7.732-52.052c-1.511-3.711-3.073-7.548-4.599-11.667c-4.657-12.575-4.626-23.752,0.092-33.221    c7.158-14.363,22.51-19.109,23.16-19.305c2.645-0.793,5.432,0.708,6.226,3.353c0.792,2.639-0.701,5.42-3.334,6.221    c-0.142,0.044-11.974,3.804-17.141,14.271c-3.397,6.883-3.271,15.364,0.375,25.208c1.47,3.969,3.001,7.731,4.482,11.369    c9.006,22.12,16.783,41.224-10.682,63.578C-549.937,909.8-551.054,910.167-552.163,910.167z" fill="#58595B"/></g><g><path d="M-438.833,745.167c0,0-19.979,21.938-105,22.667c-77.667,0.666-105-22.667-105-22.667    c0,0-2.667-24-2.667-24s73.221,1.333,107.667,1.333c33.391,0,107.667-5.333,107.667-5.333L-438.833,745.167z" fill="#9B8E84"/></g><g><path d="M-545.748,772.847c-70.467,0-99.447-19.608-104.288-23.311c-1.216-0.711-2.246-2.14-2.548-4.849    l-2.552-22.97c-0.159-1.429,0.305-2.857,1.274-3.92c0.969-1.063,2.349-1.654,3.786-1.631c0.732,0.013,73.57,1.332,107.576,1.332    c32.832,0,106.568-5.267,107.309-5.32c1.467-0.104,2.907,0.44,3.935,1.493s1.541,2.504,1.401,3.968l-2.667,28    c-0.103,1.078-0.552,2.093-1.281,2.894c-0.876,0.961-22.441,23.56-108.654,24.3C-543.562,772.844-544.664,772.847-545.748,772.847    z M-642.773,742.43c6.44,4.339,34.536,20.417,97.025,20.417c1.056,0,2.13-0.004,3.206-0.014    c70.55-0.605,95.107-16.117,100.253-20.107l1.92-20.162c-18.289,1.252-74.446,4.936-102.13,4.936    c-28.51,0-84.166-0.923-102.07-1.233C-643.995,731.435-643.176,738.81-642.773,742.43z" fill="#58595B"/></g><g><ellipse cx="-542.5" cy="718.081" fill="#9B8E84" rx="109.25" ry="24.912"/></g><g><path d="M-542.5,746.834c-29.072,0-56.455-2.396-77.104-6.746c-23.874-5.03-35.479-11.874-35.479-20.921    s11.605-15.891,35.479-20.921c20.649-4.351,48.031-6.746,77.104-6.746s56.455,2.396,77.104,6.746    c23.874,5.03,35.479,11.874,35.479,20.921s-11.605,15.891-35.479,20.921C-486.045,744.438-513.427,746.834-542.5,746.834z     M-542.5,701.5c-27.818,0-54.078,2.238-73.943,6.304c-23.083,4.724-28.463,10.175-28.64,11.376    c0.177,1.176,5.557,6.627,28.64,11.351c19.865,4.065,46.125,6.304,73.943,6.304s54.078-2.238,73.943-6.304    c23.083-4.724,28.463-10.175,28.64-11.376c-0.177-1.176-5.557-6.627-28.64-11.351C-488.422,703.738-514.682,701.5-542.5,701.5z" fill="#58595B"/></g><g><path d="M-542.5,731.5c-20.81,0-40.413-1.233-55.196-3.474c-19.038-2.885-26.804-6.707-26.804-13.193    c0-6.485,7.766-10.308,26.804-13.192c14.784-2.24,34.386-3.474,55.196-3.474s40.412,1.233,55.196,3.474    c19.038,2.885,26.804,6.707,26.804,13.192c0,6.486-7.766,10.309-26.804,13.193C-502.087,730.266-521.69,731.5-542.5,731.5z     M-611.437,714.833c8.731,2.957,31.818,6.667,68.938,6.667s60.206-3.71,68.938-6.667c-8.731-2.956-31.818-6.666-68.938-6.666    S-602.706,711.877-611.437,714.833z" fill="#58595B"/></g><g><path d="M-516.17,719.835c-0.833,0-1.68-0.174-2.488-0.543c-3.015-1.377-4.342-4.936-2.966-7.95l52.667-115.334    c1.376-3.014,4.934-4.345,7.95-2.966c3.015,1.377,4.342,4.936,2.966,7.95l-52.667,115.334    C-511.716,718.532-513.893,719.835-516.17,719.835z" fill="#58595B"/></g><g><ellipse cx="-516.833" cy="717.167" fill="#58595B" rx="11.333" ry="3.333"/></g></g></svg>